<svg viewBox="0 0 40 40" fill="none" xmlns="http://www.w3.org/2000/svg"><g filter="url(#filter0_d_101_438)" clip-path="url(#clip0_101_438)"><path d="M20 25v3.333V25ZM10 35h20a3.333 3.333 0 0 0 3.333-3.333v-10A3.334 3.334 0 0 0 30 18.333H10a3.333 3.333 0 0 0-3.333 3.334v10A3.333 3.333 0 0 0 10 35Zm16.667-16.667v-6.666a6.667 6.667 0 0 0-13.334 0v6.666h13.334Z" stroke="url(#paint0_linear_101_438)" stroke-width="3.333" stroke-linecap="round" stroke-linejoin="round" shape-rendering="crispEdges"/></g><defs><linearGradient id="paint0_linear_101_438" x1="8" y1="5" x2="37.793" y2="31.483" gradientUnits="userSpaceOnUse"><stop stop-color="#00FFC4"/><stop offset="1" stop-color="#00E1FF" stop-opacity=".6"/></linearGradient><clipPath id="clip0_101_438"><path fill="#fff" d="M0 0h40v40H0z"/></clipPath><filter id="filter0_d_101_438" x="1" y="1.333" width="38" height="41.334" filterUnits="userSpaceOnUse" color-interpolation-filters="sRGB"><feFlood flood-opacity="0" result="BackgroundImageFix"/><feColorMatrix in="SourceAlpha" values="0 0 0 0 0 0 0 0 0 0 0 0 0 0 0 0 0 0 127 0" result="hardAlpha"/><feOffset dy="2"/><feGaussianBlur stdDeviation="2"/><feComposite in2="hardAlpha" operator="out"/><feColorMatrix values="0 0 0 0 0.030625 0 0 0 0 0.0693438 0 0 0 0 0.116667 0 0 0 0.5 0"/><feBlend in2="BackgroundImageFix" result="effect1_dropShadow_101_438"/><feBlend in="SourceGraphic" in2="effect1_dropShadow_101_438" result="shape"/></filter></defs></svg>
